# xmcd
#
# Track frame offsets:
#	150
#	17360
#	35490
#	58425
#	75750
#
# Disc length: 1248 seconds
#
# Revision: 1
# Processed by: cddbd v1.5.1PL0 Copyright (c) Steve Scherf et al.
# Submitted via: CDex 1.50Beta5
#
DISCID=2f04de05
DTITLE=樋井明日香 - Wanna be your girlfriend
DYEAR=2003
DGENRE=Pop
TTITLE0=Wanna be your girlfriend
TTITLE1=Baby Feels so right！
TTITLE2=Wanna be your girlfriend （extended ver．）
TTITLE3=Wanna be your girlfriend （instrumental）
TTITLE4=Baby Feels so right！（instrumental）
EXTD=
EXTT0=
EXTT1=
EXTT2=
EXTT3=
EXTT4=
PLAYORDER=
